<svg xmlns="http://www.w3.org/2000/svg" xml:space="preserve" width="800" height="800" viewBox="0 0 490.667 490.667"><path d="M245.333 170.667c-1.088 0-2.133.085-3.968.299-5.888.341-8.981 5.227-8.661 11.115s6.699 10.325 12.629 9.92c29.397 0 53.333 23.936 53.248 54.059-.021.213-.192 1.856-.192 2.091-.32 5.739 4.053 10.005 9.792 10.496.277.021.533.021.811.021 5.419 0 10.133-4.672 10.773-10.133.064-.405.235-2.773.235-3.2 0-41.175-33.493-74.668-74.667-74.668z"/><path d="M245.333 0C110.059 0 0 110.059 0 245.333s110.059 245.333 245.333 245.333 245.333-110.059 245.333-245.333S380.608 0 245.333 0zm0 469.333c-123.52 0-224-100.48-224-224 0-57.92 22.272-110.613 58.496-150.4l52.267 52.267c-15.808 14.08-25.429 34.155-25.429 55.467V288c0 41.173 33.493 74.667 74.667 74.667h128c10.773 0 21.269-2.773 30.997-7.232l55.403 55.403c-39.787 36.223-92.481 58.495-150.401 58.495zm0-149.333c16.213 0 31.637-5.483 44.48-15.083l34.176 34.176c-4.757 1.365-9.664 2.24-14.656 2.24h-128C151.936 341.333 128 317.397 128 288v-85.333c0-15.893 7.061-30.315 19.072-40.491l38.677 38.677c-9.6 12.843-15.083 28.288-15.083 44.48.001 41.174 33.494 74.667 74.667 74.667zM192 245.333c0-10.517 3.221-20.629 8.939-29.291l73.707 73.707c-8.661 5.717-18.773 8.917-29.312 8.917-29.398.001-53.334-23.935-53.334-53.333zm218.816 150.422L94.912 79.851c39.808-36.224 92.48-58.517 150.421-58.517 123.52 0 224 100.48 224 224 0 57.941-22.293 110.613-58.517 150.421z"/><path d="M309.312 128h-12.48c-4.416-12.416-16.277-21.333-30.187-21.333h-42.667c-14.507 0-26.795 9.728-30.699 22.997a10.642 10.642 0 0 0-4.949 9.003c0 5.888 4.779 10.667 10.667 10.667h3.669c5.888 0 10.667-4.779 10.667-10.667S218.112 128 224 128h42.667c5.888 0 10.667 4.779 10.667 10.667s4.779 10.667 10.667 10.667h21.333c29.397 0 53.333 23.936 53.333 53.333V288c0 5.803-1.067 11.755-3.157 17.707-1.941 5.568.981 11.648 6.528 13.611 1.173.405 2.368.597 3.541.597 4.395 0 8.512-2.752 10.027-7.125 2.901-8.256 4.373-16.576 4.373-24.789v-85.333c0-41.175-33.494-74.668-74.667-74.668z"/></svg>